<mxfile host="app.diagrams.net" agent="Mozilla/5.0 (Windows NT 10.0; Win64; x64) AppleWebKit/537.36 (KHTML, like Gecko) Chrome/135.0.0.0 Safari/537.36" version="27.0.2" pages="6">
  <diagram name="Рецепты" id="PHiLIq2vT_D9kYJcYUrJ">
    <mxGraphModel dx="1603" dy="823" grid="1" gridSize="10" guides="1" tooltips="1" connect="1" arrows="1" fold="1" page="1" pageScale="1" pageWidth="1169" pageHeight="827" math="0" shadow="0">
      <root>
        <mxCell id="0" />
        <mxCell id="1" parent="0" />
        <mxCell id="n6onxvDTmMI1hdRBcBUF-22" value="&lt;font style=&quot;font-size: 14px;&quot;&gt;Паста карбонара&lt;/font&gt;" style="ellipse;whiteSpace=wrap;html=1;aspect=fixed;" parent="1" vertex="1">
          <mxGeometry x="110" y="40" width="120" height="120" as="geometry" />
        </mxCell>
        <mxCell id="n6onxvDTmMI1hdRBcBUF-23" value="&lt;font style=&quot;font-size: 16px;&quot;&gt;1&lt;/font&gt;" style="ellipse;whiteSpace=wrap;html=1;aspect=fixed;" parent="1" vertex="1">
          <mxGeometry x="147.5" y="40" width="45" height="45" as="geometry" />
        </mxCell>
        <mxCell id="n6onxvDTmMI1hdRBcBUF-24" value="&lt;font style=&quot;font-size: 14px;&quot;&gt;Цезарь салат&lt;/font&gt;" style="ellipse;whiteSpace=wrap;html=1;aspect=fixed;" parent="1" vertex="1">
          <mxGeometry x="300" y="40" width="120" height="120" as="geometry" />
        </mxCell>
        <mxCell id="n6onxvDTmMI1hdRBcBUF-25" value="&lt;font style=&quot;font-size: 16px;&quot;&gt;2&lt;/font&gt;" style="ellipse;whiteSpace=wrap;html=1;aspect=fixed;" parent="1" vertex="1">
          <mxGeometry x="337.5" y="40" width="45" height="45" as="geometry" />
        </mxCell>
        <mxCell id="n6onxvDTmMI1hdRBcBUF-26" value="&lt;font style=&quot;font-size: 13px;&quot;&gt;Шоколадный торт&lt;/font&gt;" style="ellipse;whiteSpace=wrap;html=1;aspect=fixed;" parent="1" vertex="1">
          <mxGeometry x="510" y="40" width="120" height="120" as="geometry" />
        </mxCell>
        <mxCell id="n6onxvDTmMI1hdRBcBUF-27" value="&lt;font style=&quot;font-size: 16px;&quot;&gt;3&lt;/font&gt;" style="ellipse;whiteSpace=wrap;html=1;aspect=fixed;" parent="1" vertex="1">
          <mxGeometry x="547.5" y="40" width="45" height="45" as="geometry" />
        </mxCell>
        <mxCell id="n6onxvDTmMI1hdRBcBUF-28" value="&lt;font style=&quot;font-size: 14px;&quot;&gt;Омлет&lt;/font&gt;" style="ellipse;whiteSpace=wrap;html=1;aspect=fixed;" parent="1" vertex="1">
          <mxGeometry x="720" y="40" width="120" height="120" as="geometry" />
        </mxCell>
        <mxCell id="n6onxvDTmMI1hdRBcBUF-29" value="&lt;font size=&quot;3&quot;&gt;4&lt;/font&gt;" style="ellipse;whiteSpace=wrap;html=1;aspect=fixed;" parent="1" vertex="1">
          <mxGeometry x="757.5" y="40" width="45" height="45" as="geometry" />
        </mxCell>
        <mxCell id="n6onxvDTmMI1hdRBcBUF-30" value="&lt;font style=&quot;font-size: 14px;&quot;&gt;Курица терияки&lt;/font&gt;" style="ellipse;whiteSpace=wrap;html=1;aspect=fixed;" parent="1" vertex="1">
          <mxGeometry x="920" y="40" width="120" height="120" as="geometry" />
        </mxCell>
        <mxCell id="n6onxvDTmMI1hdRBcBUF-31" value="&lt;font style=&quot;font-size: 16px;&quot;&gt;5&lt;/font&gt;" style="ellipse;whiteSpace=wrap;html=1;aspect=fixed;" parent="1" vertex="1">
          <mxGeometry x="957.5" y="40" width="45" height="45" as="geometry" />
        </mxCell>
        <mxCell id="n6onxvDTmMI1hdRBcBUF-32" value="&lt;font style=&quot;font-size: 14px;&quot;&gt;Тайский карри&lt;/font&gt;" style="ellipse;whiteSpace=wrap;html=1;aspect=fixed;" parent="1" vertex="1">
          <mxGeometry x="110" y="200" width="120" height="120" as="geometry" />
        </mxCell>
        <mxCell id="n6onxvDTmMI1hdRBcBUF-33" value="&lt;font size=&quot;3&quot;&gt;6&lt;/font&gt;" style="ellipse;whiteSpace=wrap;html=1;aspect=fixed;" parent="1" vertex="1">
          <mxGeometry x="147.5" y="200" width="45" height="45" as="geometry" />
        </mxCell>
        <mxCell id="n6onxvDTmMI1hdRBcBUF-34" value="&lt;font style=&quot;font-size: 14px;&quot;&gt;Ризотто&lt;/font&gt;" style="ellipse;whiteSpace=wrap;html=1;aspect=fixed;" parent="1" vertex="1">
          <mxGeometry x="300" y="200" width="120" height="120" as="geometry" />
        </mxCell>
        <mxCell id="n6onxvDTmMI1hdRBcBUF-35" value="&lt;font size=&quot;3&quot;&gt;7&lt;/font&gt;" style="ellipse;whiteSpace=wrap;html=1;aspect=fixed;" parent="1" vertex="1">
          <mxGeometry x="337.5" y="200" width="45" height="45" as="geometry" />
        </mxCell>
        <mxCell id="n6onxvDTmMI1hdRBcBUF-36" value="&lt;font style=&quot;font-size: 14px;&quot;&gt;Бургер&lt;/font&gt;" style="ellipse;whiteSpace=wrap;html=1;aspect=fixed;" parent="1" vertex="1">
          <mxGeometry x="510" y="200" width="120" height="120" as="geometry" />
        </mxCell>
        <mxCell id="n6onxvDTmMI1hdRBcBUF-37" value="&lt;font size=&quot;3&quot;&gt;8&lt;/font&gt;" style="ellipse;whiteSpace=wrap;html=1;aspect=fixed;" parent="1" vertex="1">
          <mxGeometry x="547.5" y="200" width="45" height="45" as="geometry" />
        </mxCell>
        <mxCell id="n6onxvDTmMI1hdRBcBUF-38" value="&lt;font style=&quot;font-size: 13px;&quot;&gt;Суп минестроне&lt;/font&gt;" style="ellipse;whiteSpace=wrap;html=1;aspect=fixed;" parent="1" vertex="1">
          <mxGeometry x="720" y="200" width="120" height="120" as="geometry" />
        </mxCell>
        <mxCell id="n6onxvDTmMI1hdRBcBUF-39" value="&lt;font size=&quot;3&quot;&gt;9&lt;/font&gt;" style="ellipse;whiteSpace=wrap;html=1;aspect=fixed;" parent="1" vertex="1">
          <mxGeometry x="757.5" y="200" width="45" height="45" as="geometry" />
        </mxCell>
        <mxCell id="n6onxvDTmMI1hdRBcBUF-40" value="&lt;font style=&quot;font-size: 14px;&quot;&gt;Печенье&lt;/font&gt;" style="ellipse;whiteSpace=wrap;html=1;aspect=fixed;" parent="1" vertex="1">
          <mxGeometry x="920" y="200" width="120" height="120" as="geometry" />
        </mxCell>
        <mxCell id="n6onxvDTmMI1hdRBcBUF-41" value="&lt;font size=&quot;3&quot;&gt;10&lt;/font&gt;" style="ellipse;whiteSpace=wrap;html=1;aspect=fixed;" parent="1" vertex="1">
          <mxGeometry x="957.5" y="200" width="45" height="45" as="geometry" />
        </mxCell>
      </root>
    </mxGraphModel>
  </diagram>
  <diagram id="PeE2TYELC_hSbLIVngp6" name="Ингредиенты ">
    <mxGraphModel dx="1408" dy="2108" grid="1" gridSize="10" guides="1" tooltips="1" connect="1" arrows="1" fold="1" page="1" pageScale="1" pageWidth="1169" pageHeight="827" math="0" shadow="0">
      <root>
        <mxCell id="0" />
        <mxCell id="1" parent="0" />
        <mxCell id="mdU7J_Ebo9tEx6lbOtLi-1" value="&lt;div&gt;&lt;span style=&quot;font-size: 14px; background-color: transparent; color: light-dark(rgb(0, 0, 0), rgb(255, 255, 255));&quot;&gt;Спагетти&lt;/span&gt;&lt;/div&gt;" style="ellipse;shape=cloud;whiteSpace=wrap;html=1;" parent="1" vertex="1">
          <mxGeometry x="30" y="40" width="150" height="100" as="geometry" />
        </mxCell>
        <mxCell id="mdU7J_Ebo9tEx6lbOtLi-2" value="&lt;font style=&quot;font-size: 14px;&quot;&gt;1&lt;/font&gt;" style="ellipse;shape=cloud;whiteSpace=wrap;html=1;" parent="1" vertex="1">
          <mxGeometry x="70" y="40" width="60" height="40" as="geometry" />
        </mxCell>
        <mxCell id="mdU7J_Ebo9tEx6lbOtLi-4" value="&lt;font style=&quot;font-size: 14px;&quot;&gt;Яйца&lt;/font&gt;" style="ellipse;shape=cloud;whiteSpace=wrap;html=1;" parent="1" vertex="1">
          <mxGeometry x="250" y="40" width="150" height="100" as="geometry" />
        </mxCell>
        <mxCell id="mdU7J_Ebo9tEx6lbOtLi-5" value="&lt;font style=&quot;font-size: 14px;&quot;&gt;2&lt;/font&gt;" style="ellipse;shape=cloud;whiteSpace=wrap;html=1;" parent="1" vertex="1">
          <mxGeometry x="290" y="40" width="60" height="40" as="geometry" />
        </mxCell>
        <mxCell id="mdU7J_Ebo9tEx6lbOtLi-6" value="&lt;font style=&quot;font-size: 14px;&quot;&gt;Бекон&lt;/font&gt;" style="ellipse;shape=cloud;whiteSpace=wrap;html=1;" parent="1" vertex="1">
          <mxGeometry x="470" y="40" width="150" height="100" as="geometry" />
        </mxCell>
        <mxCell id="mdU7J_Ebo9tEx6lbOtLi-7" value="&lt;font style=&quot;font-size: 14px;&quot;&gt;3&lt;/font&gt;" style="ellipse;shape=cloud;whiteSpace=wrap;html=1;" parent="1" vertex="1">
          <mxGeometry x="510" y="40" width="60" height="40" as="geometry" />
        </mxCell>
        <mxCell id="mdU7J_Ebo9tEx6lbOtLi-8" value="&lt;font style=&quot;font-size: 14px;&quot;&gt;Салат&lt;/font&gt;" style="ellipse;shape=cloud;whiteSpace=wrap;html=1;" parent="1" vertex="1">
          <mxGeometry x="690" y="40" width="150" height="100" as="geometry" />
        </mxCell>
        <mxCell id="mdU7J_Ebo9tEx6lbOtLi-9" value="&lt;font style=&quot;font-size: 14px;&quot;&gt;4&lt;/font&gt;" style="ellipse;shape=cloud;whiteSpace=wrap;html=1;" parent="1" vertex="1">
          <mxGeometry x="730" y="40" width="60" height="40" as="geometry" />
        </mxCell>
        <mxCell id="mdU7J_Ebo9tEx6lbOtLi-10" value="&lt;font style=&quot;font-size: 14px;&quot;&gt;Куриное филе&lt;/font&gt;" style="ellipse;shape=cloud;whiteSpace=wrap;html=1;" parent="1" vertex="1">
          <mxGeometry x="890" y="40" width="150" height="100" as="geometry" />
        </mxCell>
        <mxCell id="mdU7J_Ebo9tEx6lbOtLi-11" value="&lt;font style=&quot;font-size: 14px;&quot;&gt;5&lt;/font&gt;" style="ellipse;shape=cloud;whiteSpace=wrap;html=1;" parent="1" vertex="1">
          <mxGeometry x="930" y="40" width="60" height="40" as="geometry" />
        </mxCell>
        <mxCell id="mdU7J_Ebo9tEx6lbOtLi-14" value="&lt;font style=&quot;font-size: 14px;&quot;&gt;Шоколад&lt;/font&gt;" style="ellipse;shape=cloud;whiteSpace=wrap;html=1;" parent="1" vertex="1">
          <mxGeometry x="250" y="160" width="150" height="100" as="geometry" />
        </mxCell>
        <mxCell id="mdU7J_Ebo9tEx6lbOtLi-15" value="&lt;font style=&quot;font-size: 14px;&quot;&gt;7&lt;/font&gt;" style="ellipse;shape=cloud;whiteSpace=wrap;html=1;" parent="1" vertex="1">
          <mxGeometry x="290" y="160" width="60" height="40" as="geometry" />
        </mxCell>
        <mxCell id="mdU7J_Ebo9tEx6lbOtLi-16" value="&lt;font style=&quot;font-size: 14px;&quot;&gt;Мука&lt;/font&gt;" style="ellipse;shape=cloud;whiteSpace=wrap;html=1;" parent="1" vertex="1">
          <mxGeometry x="465" y="160" width="150" height="100" as="geometry" />
        </mxCell>
        <mxCell id="mdU7J_Ebo9tEx6lbOtLi-17" value="&lt;font style=&quot;font-size: 14px;&quot;&gt;8&lt;/font&gt;" style="ellipse;shape=cloud;whiteSpace=wrap;html=1;" parent="1" vertex="1">
          <mxGeometry x="505" y="160" width="60" height="40" as="geometry" />
        </mxCell>
        <mxCell id="mdU7J_Ebo9tEx6lbOtLi-18" value="&lt;font style=&quot;font-size: 14px;&quot;&gt;Грибы&lt;/font&gt;" style="ellipse;shape=cloud;whiteSpace=wrap;html=1;" parent="1" vertex="1">
          <mxGeometry x="690" y="160" width="150" height="100" as="geometry" />
        </mxCell>
        <mxCell id="mdU7J_Ebo9tEx6lbOtLi-19" value="&lt;font style=&quot;font-size: 14px;&quot;&gt;9&lt;/font&gt;" style="ellipse;shape=cloud;whiteSpace=wrap;html=1;" parent="1" vertex="1">
          <mxGeometry x="730" y="160" width="60" height="40" as="geometry" />
        </mxCell>
        <mxCell id="mdU7J_Ebo9tEx6lbOtLi-20" value="&lt;font style=&quot;font-size: 14px;&quot;&gt;Лук&lt;/font&gt;" style="ellipse;shape=cloud;whiteSpace=wrap;html=1;" parent="1" vertex="1">
          <mxGeometry x="885" y="160" width="150" height="100" as="geometry" />
        </mxCell>
        <mxCell id="mdU7J_Ebo9tEx6lbOtLi-21" value="&lt;font style=&quot;font-size: 14px;&quot;&gt;10&lt;/font&gt;" style="ellipse;shape=cloud;whiteSpace=wrap;html=1;" parent="1" vertex="1">
          <mxGeometry x="925" y="160" width="60" height="40" as="geometry" />
        </mxCell>
        <mxCell id="mdU7J_Ebo9tEx6lbOtLi-22" value="&lt;font style=&quot;font-size: 14px;&quot;&gt;Соус терияки&lt;/font&gt;" style="ellipse;shape=cloud;whiteSpace=wrap;html=1;" parent="1" vertex="1">
          <mxGeometry x="30" y="160" width="150" height="100" as="geometry" />
        </mxCell>
        <mxCell id="mdU7J_Ebo9tEx6lbOtLi-23" value="&lt;font style=&quot;font-size: 14px;&quot;&gt;6&lt;/font&gt;" style="ellipse;shape=cloud;whiteSpace=wrap;html=1;" parent="1" vertex="1">
          <mxGeometry x="70" y="160" width="60" height="40" as="geometry" />
        </mxCell>
      </root>
    </mxGraphModel>
  </diagram>
  <diagram id="2RU0EbWHRfKL3OItZ1xQ" name="МетодыПриготовления">
    <mxGraphModel dx="1247" dy="1189" grid="1" gridSize="10" guides="1" tooltips="1" connect="1" arrows="1" fold="1" page="1" pageScale="1" pageWidth="1169" pageHeight="827" math="0" shadow="0">
      <root>
        <mxCell id="0" />
        <mxCell id="1" parent="0" />
        <mxCell id="9xadDI_x3VXEpbNX4CMa-1" value="Варка" style="whiteSpace=wrap;html=1;aspect=fixed;" vertex="1" parent="1">
          <mxGeometry x="120" y="40" width="80" height="80" as="geometry" />
        </mxCell>
        <mxCell id="9xadDI_x3VXEpbNX4CMa-2" value="1" style="whiteSpace=wrap;html=1;aspect=fixed;" vertex="1" parent="1">
          <mxGeometry x="145" y="40" width="30" height="30" as="geometry" />
        </mxCell>
        <mxCell id="9xadDI_x3VXEpbNX4CMa-3" value="Жарка" style="whiteSpace=wrap;html=1;aspect=fixed;" vertex="1" parent="1">
          <mxGeometry x="317.5" y="40" width="80" height="80" as="geometry" />
        </mxCell>
        <mxCell id="9xadDI_x3VXEpbNX4CMa-4" value="2" style="whiteSpace=wrap;html=1;aspect=fixed;" vertex="1" parent="1">
          <mxGeometry x="342.5" y="40" width="30" height="30" as="geometry" />
        </mxCell>
        <mxCell id="9xadDI_x3VXEpbNX4CMa-5" value="Запекание" style="whiteSpace=wrap;html=1;aspect=fixed;" vertex="1" parent="1">
          <mxGeometry x="530" y="40" width="80" height="80" as="geometry" />
        </mxCell>
        <mxCell id="9xadDI_x3VXEpbNX4CMa-6" value="3" style="whiteSpace=wrap;html=1;aspect=fixed;" vertex="1" parent="1">
          <mxGeometry x="555" y="40" width="30" height="30" as="geometry" />
        </mxCell>
        <mxCell id="9xadDI_x3VXEpbNX4CMa-7" value="Тушение" style="whiteSpace=wrap;html=1;aspect=fixed;" vertex="1" parent="1">
          <mxGeometry x="760" y="40" width="80" height="80" as="geometry" />
        </mxCell>
        <mxCell id="9xadDI_x3VXEpbNX4CMa-8" value="4" style="whiteSpace=wrap;html=1;aspect=fixed;" vertex="1" parent="1">
          <mxGeometry x="785" y="40" width="30" height="30" as="geometry" />
        </mxCell>
        <mxCell id="9xadDI_x3VXEpbNX4CMa-9" value="Запаривание" style="whiteSpace=wrap;html=1;aspect=fixed;" vertex="1" parent="1">
          <mxGeometry x="960" y="40" width="80" height="80" as="geometry" />
        </mxCell>
        <mxCell id="9xadDI_x3VXEpbNX4CMa-10" value="5" style="whiteSpace=wrap;html=1;aspect=fixed;" vertex="1" parent="1">
          <mxGeometry x="985" y="40" width="30" height="30" as="geometry" />
        </mxCell>
        <mxCell id="9xadDI_x3VXEpbNX4CMa-11" value="&lt;font style=&quot;font-size: 10px;&quot;&gt;Приготовление на пару&lt;/font&gt;" style="whiteSpace=wrap;html=1;aspect=fixed;" vertex="1" parent="1">
          <mxGeometry x="120" y="160" width="80" height="80" as="geometry" />
        </mxCell>
        <mxCell id="9xadDI_x3VXEpbNX4CMa-12" value="6" style="whiteSpace=wrap;html=1;aspect=fixed;" vertex="1" parent="1">
          <mxGeometry x="148.75" y="160" width="22.5" height="22.5" as="geometry" />
        </mxCell>
        <mxCell id="9xadDI_x3VXEpbNX4CMa-13" value="Гриль" style="whiteSpace=wrap;html=1;aspect=fixed;" vertex="1" parent="1">
          <mxGeometry x="317.5" y="160" width="80" height="80" as="geometry" />
        </mxCell>
        <mxCell id="9xadDI_x3VXEpbNX4CMa-14" value="7" style="whiteSpace=wrap;html=1;aspect=fixed;" vertex="1" parent="1">
          <mxGeometry x="345" y="160" width="25" height="25" as="geometry" />
        </mxCell>
        <mxCell id="9xadDI_x3VXEpbNX4CMa-15" value="&lt;font style=&quot;font-size: 10px;&quot;&gt;Запекание в микроволновке&lt;/font&gt;" style="whiteSpace=wrap;html=1;aspect=fixed;" vertex="1" parent="1">
          <mxGeometry x="530" y="160" width="80" height="80" as="geometry" />
        </mxCell>
        <mxCell id="9xadDI_x3VXEpbNX4CMa-16" value="8" style="whiteSpace=wrap;html=1;aspect=fixed;" vertex="1" parent="1">
          <mxGeometry x="557.5" y="160" width="25" height="25" as="geometry" />
        </mxCell>
        <mxCell id="9xadDI_x3VXEpbNX4CMa-17" value="Смешивание" style="whiteSpace=wrap;html=1;aspect=fixed;" vertex="1" parent="1">
          <mxGeometry x="760" y="160" width="80" height="80" as="geometry" />
        </mxCell>
        <mxCell id="9xadDI_x3VXEpbNX4CMa-18" value="9" style="whiteSpace=wrap;html=1;aspect=fixed;" vertex="1" parent="1">
          <mxGeometry x="785" y="160" width="30" height="30" as="geometry" />
        </mxCell>
        <mxCell id="9xadDI_x3VXEpbNX4CMa-19" value="Копчение" style="whiteSpace=wrap;html=1;aspect=fixed;" vertex="1" parent="1">
          <mxGeometry x="960" y="160" width="80" height="80" as="geometry" />
        </mxCell>
        <mxCell id="9xadDI_x3VXEpbNX4CMa-20" value="10" style="whiteSpace=wrap;html=1;aspect=fixed;" vertex="1" parent="1">
          <mxGeometry x="985" y="160" width="30" height="30" as="geometry" />
        </mxCell>
      </root>
    </mxGraphModel>
  </diagram>
  <diagram id="_zWtBKHUQcSttkrMMRda" name="ГотовитьсяИз">
    <mxGraphModel dx="1560" dy="1338" grid="1" gridSize="10" guides="1" tooltips="1" connect="1" arrows="1" fold="1" page="1" pageScale="1" pageWidth="1654" pageHeight="1169" math="0" shadow="0">
      <root>
        <mxCell id="0" />
        <mxCell id="1" parent="0" />
        <mxCell id="xqUW2kxfaH_BdkWxtVFd-1" style="edgeStyle=orthogonalEdgeStyle;rounded=0;orthogonalLoop=1;jettySize=auto;html=1;exitX=0.55;exitY=0.95;exitDx=0;exitDy=0;exitPerimeter=0;entryX=0;entryY=0.5;entryDx=0;entryDy=0;" edge="1" parent="1" source="WOd_kVUgk42ql4D-GGMo-1" target="Z7zeJ2SPwOzKe09ysclz-11">
          <mxGeometry relative="1" as="geometry" />
        </mxCell>
        <mxCell id="WOd_kVUgk42ql4D-GGMo-1" value="&lt;div&gt;&lt;span style=&quot;font-size: 14px; background-color: transparent; color: light-dark(rgb(0, 0, 0), rgb(255, 255, 255));&quot;&gt;Спагетти&lt;/span&gt;&lt;/div&gt;" style="ellipse;shape=cloud;whiteSpace=wrap;html=1;" vertex="1" parent="1">
          <mxGeometry x="50" y="485" width="150" height="100" as="geometry" />
        </mxCell>
        <mxCell id="WOd_kVUgk42ql4D-GGMo-2" value="&lt;font style=&quot;font-size: 14px;&quot;&gt;1&lt;/font&gt;" style="ellipse;shape=cloud;whiteSpace=wrap;html=1;" vertex="1" parent="1">
          <mxGeometry x="90" y="485" width="60" height="40" as="geometry" />
        </mxCell>
        <mxCell id="Z7zeJ2SPwOzKe09ysclz-27" style="edgeStyle=orthogonalEdgeStyle;rounded=0;orthogonalLoop=1;jettySize=auto;html=1;exitX=0.4;exitY=0.1;exitDx=0;exitDy=0;exitPerimeter=0;entryX=0.5;entryY=1;entryDx=0;entryDy=0;" edge="1" parent="1" source="WOd_kVUgk42ql4D-GGMo-3" target="Z7zeJ2SPwOzKe09ysclz-3">
          <mxGeometry relative="1" as="geometry" />
        </mxCell>
        <mxCell id="Z7zeJ2SPwOzKe09ysclz-35" style="edgeStyle=orthogonalEdgeStyle;rounded=0;orthogonalLoop=1;jettySize=auto;html=1;exitX=0.31;exitY=0.8;exitDx=0;exitDy=0;exitPerimeter=0;entryX=0.5;entryY=0;entryDx=0;entryDy=0;" edge="1" parent="1" source="WOd_kVUgk42ql4D-GGMo-3" target="Z7zeJ2SPwOzKe09ysclz-7">
          <mxGeometry relative="1" as="geometry" />
        </mxCell>
        <mxCell id="Z7zeJ2SPwOzKe09ysclz-42" style="edgeStyle=orthogonalEdgeStyle;rounded=0;orthogonalLoop=1;jettySize=auto;html=1;exitX=0.96;exitY=0.7;exitDx=0;exitDy=0;exitPerimeter=0;" edge="1" parent="1" source="WOd_kVUgk42ql4D-GGMo-3" target="Z7zeJ2SPwOzKe09ysclz-13">
          <mxGeometry relative="1" as="geometry" />
        </mxCell>
        <mxCell id="Z7zeJ2SPwOzKe09ysclz-45" style="edgeStyle=orthogonalEdgeStyle;rounded=0;orthogonalLoop=1;jettySize=auto;html=1;exitX=0.55;exitY=0.95;exitDx=0;exitDy=0;exitPerimeter=0;entryX=0;entryY=0.5;entryDx=0;entryDy=0;" edge="1" parent="1" source="WOd_kVUgk42ql4D-GGMo-3" target="Z7zeJ2SPwOzKe09ysclz-19">
          <mxGeometry relative="1" as="geometry" />
        </mxCell>
        <mxCell id="WOd_kVUgk42ql4D-GGMo-3" value="&lt;font style=&quot;font-size: 14px;&quot;&gt;Яйца&lt;/font&gt;" style="ellipse;shape=cloud;whiteSpace=wrap;html=1;" vertex="1" parent="1">
          <mxGeometry x="620" y="410" width="150" height="100" as="geometry" />
        </mxCell>
        <mxCell id="WOd_kVUgk42ql4D-GGMo-4" value="&lt;font style=&quot;font-size: 14px;&quot;&gt;2&lt;/font&gt;" style="ellipse;shape=cloud;whiteSpace=wrap;html=1;" vertex="1" parent="1">
          <mxGeometry x="657.5" y="412.5" width="60" height="40" as="geometry" />
        </mxCell>
        <mxCell id="Z7zeJ2SPwOzKe09ysclz-24" style="edgeStyle=orthogonalEdgeStyle;rounded=0;orthogonalLoop=1;jettySize=auto;html=1;exitX=0.55;exitY=0.95;exitDx=0;exitDy=0;exitPerimeter=0;entryX=0.5;entryY=0;entryDx=0;entryDy=0;" edge="1" parent="1" source="WOd_kVUgk42ql4D-GGMo-5" target="Z7zeJ2SPwOzKe09ysclz-2">
          <mxGeometry relative="1" as="geometry" />
        </mxCell>
        <mxCell id="WOd_kVUgk42ql4D-GGMo-5" value="&lt;font style=&quot;font-size: 14px;&quot;&gt;Бекон&lt;/font&gt;" style="ellipse;shape=cloud;whiteSpace=wrap;html=1;" vertex="1" parent="1">
          <mxGeometry x="360" y="170" width="150" height="100" as="geometry" />
        </mxCell>
        <mxCell id="WOd_kVUgk42ql4D-GGMo-6" value="&lt;font style=&quot;font-size: 14px;&quot;&gt;3&lt;/font&gt;" style="ellipse;shape=cloud;whiteSpace=wrap;html=1;" vertex="1" parent="1">
          <mxGeometry x="400" y="170" width="60" height="40" as="geometry" />
        </mxCell>
        <mxCell id="Z7zeJ2SPwOzKe09ysclz-28" style="edgeStyle=orthogonalEdgeStyle;rounded=0;orthogonalLoop=1;jettySize=auto;html=1;exitX=0.16;exitY=0.55;exitDx=0;exitDy=0;exitPerimeter=0;entryX=1;entryY=0;entryDx=0;entryDy=0;" edge="1" parent="1" source="WOd_kVUgk42ql4D-GGMo-7" target="Z7zeJ2SPwOzKe09ysclz-3">
          <mxGeometry relative="1" as="geometry" />
        </mxCell>
        <mxCell id="Z7zeJ2SPwOzKe09ysclz-31" style="edgeStyle=orthogonalEdgeStyle;rounded=0;orthogonalLoop=1;jettySize=auto;html=1;exitX=0.96;exitY=0.7;exitDx=0;exitDy=0;exitPerimeter=0;entryX=0;entryY=0.5;entryDx=0;entryDy=0;" edge="1" parent="1" source="WOd_kVUgk42ql4D-GGMo-7" target="Z7zeJ2SPwOzKe09ysclz-15">
          <mxGeometry relative="1" as="geometry" />
        </mxCell>
        <mxCell id="WOd_kVUgk42ql4D-GGMo-7" value="&lt;font style=&quot;font-size: 14px;&quot;&gt;Салат&lt;/font&gt;" style="ellipse;shape=cloud;whiteSpace=wrap;html=1;" vertex="1" parent="1">
          <mxGeometry x="827" y="60" width="150" height="100" as="geometry" />
        </mxCell>
        <mxCell id="WOd_kVUgk42ql4D-GGMo-8" value="&lt;font style=&quot;font-size: 14px;&quot;&gt;4&lt;/font&gt;" style="ellipse;shape=cloud;whiteSpace=wrap;html=1;" vertex="1" parent="1">
          <mxGeometry x="867" y="60" width="60" height="40" as="geometry" />
        </mxCell>
        <mxCell id="Z7zeJ2SPwOzKe09ysclz-29" style="edgeStyle=orthogonalEdgeStyle;rounded=0;orthogonalLoop=1;jettySize=auto;html=1;exitX=0.07;exitY=0.4;exitDx=0;exitDy=0;exitPerimeter=0;entryX=1;entryY=1;entryDx=0;entryDy=0;" edge="1" parent="1" source="WOd_kVUgk42ql4D-GGMo-9" target="Z7zeJ2SPwOzKe09ysclz-3">
          <mxGeometry relative="1" as="geometry" />
        </mxCell>
        <mxCell id="Z7zeJ2SPwOzKe09ysclz-30" style="edgeStyle=orthogonalEdgeStyle;rounded=0;orthogonalLoop=1;jettySize=auto;html=1;exitX=0.875;exitY=0.5;exitDx=0;exitDy=0;exitPerimeter=0;entryX=0;entryY=1;entryDx=0;entryDy=0;" edge="1" parent="1" source="WOd_kVUgk42ql4D-GGMo-9" target="Z7zeJ2SPwOzKe09ysclz-15">
          <mxGeometry relative="1" as="geometry">
            <Array as="points">
              <mxPoint x="1001" y="280" />
              <mxPoint x="1168" y="280" />
            </Array>
          </mxGeometry>
        </mxCell>
        <mxCell id="Z7zeJ2SPwOzKe09ysclz-32" style="edgeStyle=orthogonalEdgeStyle;rounded=0;orthogonalLoop=1;jettySize=auto;html=1;exitX=0.8;exitY=0.8;exitDx=0;exitDy=0;exitPerimeter=0;entryX=0;entryY=0;entryDx=0;entryDy=0;" edge="1" parent="1" source="WOd_kVUgk42ql4D-GGMo-9" target="Z7zeJ2SPwOzKe09ysclz-9">
          <mxGeometry relative="1" as="geometry" />
        </mxCell>
        <mxCell id="Z7zeJ2SPwOzKe09ysclz-44" style="edgeStyle=orthogonalEdgeStyle;rounded=0;orthogonalLoop=1;jettySize=auto;html=1;exitX=0.13;exitY=0.77;exitDx=0;exitDy=0;exitPerimeter=0;entryX=0.5;entryY=0;entryDx=0;entryDy=0;" edge="1" parent="1" source="WOd_kVUgk42ql4D-GGMo-9" target="Z7zeJ2SPwOzKe09ysclz-13">
          <mxGeometry relative="1" as="geometry" />
        </mxCell>
        <mxCell id="WOd_kVUgk42ql4D-GGMo-9" value="&lt;font style=&quot;font-size: 14px;&quot;&gt;Куриное филе&lt;/font&gt;" style="ellipse;shape=cloud;whiteSpace=wrap;html=1;" vertex="1" parent="1">
          <mxGeometry x="870" y="292.5" width="150" height="100" as="geometry" />
        </mxCell>
        <mxCell id="WOd_kVUgk42ql4D-GGMo-10" value="&lt;font style=&quot;font-size: 14px;&quot;&gt;5&lt;/font&gt;" style="ellipse;shape=cloud;whiteSpace=wrap;html=1;" vertex="1" parent="1">
          <mxGeometry x="910" y="292.5" width="60" height="40" as="geometry" />
        </mxCell>
        <mxCell id="Z7zeJ2SPwOzKe09ysclz-48" style="edgeStyle=orthogonalEdgeStyle;rounded=0;orthogonalLoop=1;jettySize=auto;html=1;exitX=0.96;exitY=0.7;exitDx=0;exitDy=0;exitPerimeter=0;entryX=0;entryY=0;entryDx=0;entryDy=0;" edge="1" parent="1" source="WOd_kVUgk42ql4D-GGMo-11" target="Z7zeJ2SPwOzKe09ysclz-5">
          <mxGeometry relative="1" as="geometry" />
        </mxCell>
        <mxCell id="Z7zeJ2SPwOzKe09ysclz-49" style="edgeStyle=orthogonalEdgeStyle;rounded=0;orthogonalLoop=1;jettySize=auto;html=1;exitX=0.16;exitY=0.55;exitDx=0;exitDy=0;exitPerimeter=0;entryX=1;entryY=0.5;entryDx=0;entryDy=0;" edge="1" parent="1" source="WOd_kVUgk42ql4D-GGMo-11" target="Z7zeJ2SPwOzKe09ysclz-19">
          <mxGeometry relative="1" as="geometry" />
        </mxCell>
        <mxCell id="WOd_kVUgk42ql4D-GGMo-11" value="&lt;font style=&quot;font-size: 14px;&quot;&gt;Шоколад&lt;/font&gt;" style="ellipse;shape=cloud;whiteSpace=wrap;html=1;" vertex="1" parent="1">
          <mxGeometry x="927" y="532.5" width="150" height="100" as="geometry" />
        </mxCell>
        <mxCell id="WOd_kVUgk42ql4D-GGMo-12" value="&lt;font style=&quot;font-size: 14px;&quot;&gt;7&lt;/font&gt;" style="ellipse;shape=cloud;whiteSpace=wrap;html=1;" vertex="1" parent="1">
          <mxGeometry x="967" y="532.5" width="60" height="40" as="geometry" />
        </mxCell>
        <mxCell id="Z7zeJ2SPwOzKe09ysclz-46" style="edgeStyle=orthogonalEdgeStyle;rounded=0;orthogonalLoop=1;jettySize=auto;html=1;exitX=0.07;exitY=0.4;exitDx=0;exitDy=0;exitPerimeter=0;entryX=0.5;entryY=1;entryDx=0;entryDy=0;" edge="1" parent="1" source="WOd_kVUgk42ql4D-GGMo-13" target="Z7zeJ2SPwOzKe09ysclz-19">
          <mxGeometry relative="1" as="geometry" />
        </mxCell>
        <mxCell id="Z7zeJ2SPwOzKe09ysclz-47" style="edgeStyle=orthogonalEdgeStyle;rounded=0;orthogonalLoop=1;jettySize=auto;html=1;exitX=0.875;exitY=0.5;exitDx=0;exitDy=0;exitPerimeter=0;entryX=0.5;entryY=1;entryDx=0;entryDy=0;" edge="1" parent="1" source="WOd_kVUgk42ql4D-GGMo-13" target="Z7zeJ2SPwOzKe09ysclz-5">
          <mxGeometry relative="1" as="geometry" />
        </mxCell>
        <mxCell id="WOd_kVUgk42ql4D-GGMo-13" value="&lt;font style=&quot;font-size: 14px;&quot;&gt;Мука&lt;/font&gt;" style="ellipse;shape=cloud;whiteSpace=wrap;html=1;" vertex="1" parent="1">
          <mxGeometry x="870" y="735" width="150" height="100" as="geometry" />
        </mxCell>
        <mxCell id="WOd_kVUgk42ql4D-GGMo-14" value="&lt;font style=&quot;font-size: 14px;&quot;&gt;8&lt;/font&gt;" style="ellipse;shape=cloud;whiteSpace=wrap;html=1;" vertex="1" parent="1">
          <mxGeometry x="910" y="735" width="60" height="40" as="geometry" />
        </mxCell>
        <mxCell id="Z7zeJ2SPwOzKe09ysclz-38" style="edgeStyle=orthogonalEdgeStyle;rounded=0;orthogonalLoop=1;jettySize=auto;html=1;exitX=0.07;exitY=0.4;exitDx=0;exitDy=0;exitPerimeter=0;entryX=1;entryY=0.5;entryDx=0;entryDy=0;" edge="1" parent="1" source="WOd_kVUgk42ql4D-GGMo-15" target="Z7zeJ2SPwOzKe09ysclz-11">
          <mxGeometry relative="1" as="geometry" />
        </mxCell>
        <mxCell id="Z7zeJ2SPwOzKe09ysclz-39" style="edgeStyle=orthogonalEdgeStyle;rounded=0;orthogonalLoop=1;jettySize=auto;html=1;exitX=0.625;exitY=0.2;exitDx=0;exitDy=0;exitPerimeter=0;entryX=0.5;entryY=1;entryDx=0;entryDy=0;" edge="1" parent="1" source="WOd_kVUgk42ql4D-GGMo-15" target="Z7zeJ2SPwOzKe09ysclz-7">
          <mxGeometry relative="1" as="geometry" />
        </mxCell>
        <mxCell id="Z7zeJ2SPwOzKe09ysclz-40" style="edgeStyle=orthogonalEdgeStyle;rounded=0;orthogonalLoop=1;jettySize=auto;html=1;exitX=0.31;exitY=0.8;exitDx=0;exitDy=0;exitPerimeter=0;entryX=0.5;entryY=0;entryDx=0;entryDy=0;" edge="1" parent="1" source="WOd_kVUgk42ql4D-GGMo-15" target="Z7zeJ2SPwOzKe09ysclz-18">
          <mxGeometry relative="1" as="geometry" />
        </mxCell>
        <mxCell id="WOd_kVUgk42ql4D-GGMo-15" value="&lt;font style=&quot;font-size: 14px;&quot;&gt;Грибы&lt;/font&gt;" style="ellipse;shape=cloud;whiteSpace=wrap;html=1;" vertex="1" parent="1">
          <mxGeometry x="507.5" y="742.5" width="150" height="100" as="geometry" />
        </mxCell>
        <mxCell id="WOd_kVUgk42ql4D-GGMo-16" value="&lt;font style=&quot;font-size: 14px;&quot;&gt;9&lt;/font&gt;" style="ellipse;shape=cloud;whiteSpace=wrap;html=1;" vertex="1" parent="1">
          <mxGeometry x="547.5" y="742.5" width="60" height="40" as="geometry" />
        </mxCell>
        <mxCell id="Z7zeJ2SPwOzKe09ysclz-36" style="edgeStyle=orthogonalEdgeStyle;rounded=0;orthogonalLoop=1;jettySize=auto;html=1;exitX=0.55;exitY=0.95;exitDx=0;exitDy=0;exitPerimeter=0;entryX=0.5;entryY=0;entryDx=0;entryDy=0;" edge="1" parent="1" source="WOd_kVUgk42ql4D-GGMo-17" target="Z7zeJ2SPwOzKe09ysclz-12">
          <mxGeometry relative="1" as="geometry" />
        </mxCell>
        <mxCell id="Z7zeJ2SPwOzKe09ysclz-37" style="edgeStyle=orthogonalEdgeStyle;rounded=0;orthogonalLoop=1;jettySize=auto;html=1;exitX=0.875;exitY=0.5;exitDx=0;exitDy=0;exitPerimeter=0;entryX=0;entryY=0.5;entryDx=0;entryDy=0;" edge="1" parent="1" source="WOd_kVUgk42ql4D-GGMo-17" target="Z7zeJ2SPwOzKe09ysclz-7">
          <mxGeometry relative="1" as="geometry" />
        </mxCell>
        <mxCell id="WOd_kVUgk42ql4D-GGMo-17" value="&lt;font style=&quot;font-size: 14px;&quot;&gt;Лук&lt;/font&gt;" style="ellipse;shape=cloud;whiteSpace=wrap;html=1;" vertex="1" parent="1">
          <mxGeometry x="225" y="500" width="150" height="100" as="geometry" />
        </mxCell>
        <mxCell id="WOd_kVUgk42ql4D-GGMo-18" value="&lt;font style=&quot;font-size: 14px;&quot;&gt;10&lt;/font&gt;" style="ellipse;shape=cloud;whiteSpace=wrap;html=1;" vertex="1" parent="1">
          <mxGeometry x="265" y="500" width="60" height="40" as="geometry" />
        </mxCell>
        <mxCell id="Z7zeJ2SPwOzKe09ysclz-33" style="edgeStyle=orthogonalEdgeStyle;rounded=0;orthogonalLoop=1;jettySize=auto;html=1;exitX=0.55;exitY=0.95;exitDx=0;exitDy=0;exitPerimeter=0;entryX=0.5;entryY=0;entryDx=0;entryDy=0;" edge="1" parent="1" source="WOd_kVUgk42ql4D-GGMo-19" target="Z7zeJ2SPwOzKe09ysclz-9">
          <mxGeometry relative="1" as="geometry">
            <Array as="points">
              <mxPoint x="1470" y="175" />
              <mxPoint x="1470" y="240" />
              <mxPoint x="1270" y="240" />
            </Array>
          </mxGeometry>
        </mxCell>
        <mxCell id="Z7zeJ2SPwOzKe09ysclz-34" style="edgeStyle=orthogonalEdgeStyle;rounded=0;orthogonalLoop=1;jettySize=auto;html=1;exitX=0.16;exitY=0.55;exitDx=0;exitDy=0;exitPerimeter=0;entryX=1;entryY=0.5;entryDx=0;entryDy=0;" edge="1" parent="1" source="WOd_kVUgk42ql4D-GGMo-19" target="Z7zeJ2SPwOzKe09ysclz-15">
          <mxGeometry relative="1" as="geometry" />
        </mxCell>
        <mxCell id="WOd_kVUgk42ql4D-GGMo-19" value="&lt;font style=&quot;font-size: 14px;&quot;&gt;Соус терияки&lt;/font&gt;" style="ellipse;shape=cloud;whiteSpace=wrap;html=1;" vertex="1" parent="1">
          <mxGeometry x="1390" y="80" width="150" height="100" as="geometry" />
        </mxCell>
        <mxCell id="WOd_kVUgk42ql4D-GGMo-20" value="&lt;font style=&quot;font-size: 14px;&quot;&gt;6&lt;/font&gt;" style="ellipse;shape=cloud;whiteSpace=wrap;html=1;" vertex="1" parent="1">
          <mxGeometry x="1430" y="80" width="60" height="40" as="geometry" />
        </mxCell>
        <mxCell id="Z7zeJ2SPwOzKe09ysclz-22" style="edgeStyle=orthogonalEdgeStyle;rounded=0;orthogonalLoop=1;jettySize=auto;html=1;exitX=0.4;exitY=0.1;exitDx=0;exitDy=0;entryX=0;entryY=0.5;entryDx=0;entryDy=0;exitPerimeter=0;" edge="1" parent="1" source="WOd_kVUgk42ql4D-GGMo-1" target="Z7zeJ2SPwOzKe09ysclz-1">
          <mxGeometry relative="1" as="geometry">
            <mxPoint x="360" y="320" as="targetPoint" />
            <Array as="points">
              <mxPoint x="110" y="433" />
              <mxPoint x="350" y="433" />
            </Array>
          </mxGeometry>
        </mxCell>
        <mxCell id="Z7zeJ2SPwOzKe09ysclz-23" style="edgeStyle=orthogonalEdgeStyle;rounded=0;orthogonalLoop=1;jettySize=auto;html=1;exitX=0.16;exitY=0.55;exitDx=0;exitDy=0;exitPerimeter=0;entryX=1;entryY=0.5;entryDx=0;entryDy=0;" edge="1" parent="1" source="WOd_kVUgk42ql4D-GGMo-3" target="Z7zeJ2SPwOzKe09ysclz-1">
          <mxGeometry relative="1" as="geometry">
            <mxPoint x="660" y="380.0769230769231" as="targetPoint" />
          </mxGeometry>
        </mxCell>
        <mxCell id="Z7zeJ2SPwOzKe09ysclz-1" value="&lt;font style=&quot;font-size: 14px;&quot;&gt;Паста карбонара&lt;/font&gt;" style="ellipse;whiteSpace=wrap;html=1;aspect=fixed;" vertex="1" parent="1">
          <mxGeometry x="380" y="372.5" width="120" height="120" as="geometry" />
        </mxCell>
        <mxCell id="Z7zeJ2SPwOzKe09ysclz-2" value="&lt;font style=&quot;font-size: 16px;&quot;&gt;1&lt;/font&gt;" style="ellipse;whiteSpace=wrap;html=1;aspect=fixed;" vertex="1" parent="1">
          <mxGeometry x="417.5" y="372.5" width="45" height="45" as="geometry" />
        </mxCell>
        <mxCell id="Z7zeJ2SPwOzKe09ysclz-3" value="&lt;font style=&quot;font-size: 14px;&quot;&gt;Цезарь салат&lt;/font&gt;" style="ellipse;whiteSpace=wrap;html=1;aspect=fixed;" vertex="1" parent="1">
          <mxGeometry x="620" y="150" width="120" height="120" as="geometry" />
        </mxCell>
        <mxCell id="Z7zeJ2SPwOzKe09ysclz-4" value="&lt;font style=&quot;font-size: 16px;&quot;&gt;2&lt;/font&gt;" style="ellipse;whiteSpace=wrap;html=1;aspect=fixed;" vertex="1" parent="1">
          <mxGeometry x="657.5" y="150" width="45" height="45" as="geometry" />
        </mxCell>
        <mxCell id="Z7zeJ2SPwOzKe09ysclz-5" value="&lt;font style=&quot;font-size: 13px;&quot;&gt;Шоколадный торт&lt;/font&gt;" style="ellipse;whiteSpace=wrap;html=1;aspect=fixed;" vertex="1" parent="1">
          <mxGeometry x="1090" y="622.5" width="120" height="120" as="geometry" />
        </mxCell>
        <mxCell id="Z7zeJ2SPwOzKe09ysclz-6" value="&lt;font style=&quot;font-size: 16px;&quot;&gt;3&lt;/font&gt;" style="ellipse;whiteSpace=wrap;html=1;aspect=fixed;" vertex="1" parent="1">
          <mxGeometry x="1127.5" y="622.5" width="45" height="45" as="geometry" />
        </mxCell>
        <mxCell id="Z7zeJ2SPwOzKe09ysclz-7" value="&lt;font style=&quot;font-size: 14px;&quot;&gt;Омлет&lt;/font&gt;" style="ellipse;whiteSpace=wrap;html=1;aspect=fixed;" vertex="1" parent="1">
          <mxGeometry x="540" y="540" width="120" height="120" as="geometry" />
        </mxCell>
        <mxCell id="Z7zeJ2SPwOzKe09ysclz-8" value="&lt;font size=&quot;3&quot;&gt;4&lt;/font&gt;" style="ellipse;whiteSpace=wrap;html=1;aspect=fixed;" vertex="1" parent="1">
          <mxGeometry x="577.5" y="540" width="45" height="45" as="geometry" />
        </mxCell>
        <mxCell id="Z7zeJ2SPwOzKe09ysclz-9" value="&lt;font style=&quot;font-size: 14px;&quot;&gt;Курица терияки&lt;/font&gt;" style="ellipse;whiteSpace=wrap;html=1;aspect=fixed;" vertex="1" parent="1">
          <mxGeometry x="1210" y="282.5" width="120" height="120" as="geometry" />
        </mxCell>
        <mxCell id="Z7zeJ2SPwOzKe09ysclz-10" value="&lt;font style=&quot;font-size: 16px;&quot;&gt;5&lt;/font&gt;" style="ellipse;whiteSpace=wrap;html=1;aspect=fixed;" vertex="1" parent="1">
          <mxGeometry x="1247.5" y="282.5" width="45" height="45" as="geometry" />
        </mxCell>
        <mxCell id="Z7zeJ2SPwOzKe09ysclz-11" value="&lt;font style=&quot;font-size: 14px;&quot;&gt;Тайский карри&lt;/font&gt;" style="ellipse;whiteSpace=wrap;html=1;aspect=fixed;" vertex="1" parent="1">
          <mxGeometry x="250" y="690" width="120" height="120" as="geometry" />
        </mxCell>
        <mxCell id="Z7zeJ2SPwOzKe09ysclz-12" value="&lt;font size=&quot;3&quot;&gt;6&lt;/font&gt;" style="ellipse;whiteSpace=wrap;html=1;aspect=fixed;" vertex="1" parent="1">
          <mxGeometry x="287.5" y="690" width="45" height="45" as="geometry" />
        </mxCell>
        <mxCell id="Z7zeJ2SPwOzKe09ysclz-13" value="&lt;font style=&quot;font-size: 14px;&quot;&gt;Ризотто&lt;/font&gt;" style="ellipse;whiteSpace=wrap;html=1;aspect=fixed;" vertex="1" parent="1">
          <mxGeometry x="827" y="412.5" width="120" height="120" as="geometry" />
        </mxCell>
        <mxCell id="Z7zeJ2SPwOzKe09ysclz-14" value="&lt;font size=&quot;3&quot;&gt;7&lt;/font&gt;" style="ellipse;whiteSpace=wrap;html=1;aspect=fixed;" vertex="1" parent="1">
          <mxGeometry x="864.5" y="412.5" width="45" height="45" as="geometry" />
        </mxCell>
        <mxCell id="Z7zeJ2SPwOzKe09ysclz-15" value="&lt;font style=&quot;font-size: 14px;&quot;&gt;Бургер&lt;/font&gt;" style="ellipse;whiteSpace=wrap;html=1;aspect=fixed;" vertex="1" parent="1">
          <mxGeometry x="1150" y="70" width="120" height="120" as="geometry" />
        </mxCell>
        <mxCell id="Z7zeJ2SPwOzKe09ysclz-16" value="&lt;font size=&quot;3&quot;&gt;8&lt;/font&gt;" style="ellipse;whiteSpace=wrap;html=1;aspect=fixed;" vertex="1" parent="1">
          <mxGeometry x="1187.5" y="70" width="45" height="45" as="geometry" />
        </mxCell>
        <mxCell id="Z7zeJ2SPwOzKe09ysclz-17" value="&lt;font style=&quot;font-size: 13px;&quot;&gt;Суп минестроне&lt;/font&gt;" style="ellipse;whiteSpace=wrap;html=1;aspect=fixed;direction=south;" vertex="1" parent="1">
          <mxGeometry x="487.5" y="870" width="120" height="120" as="geometry" />
        </mxCell>
        <mxCell id="Z7zeJ2SPwOzKe09ysclz-18" value="&lt;font size=&quot;3&quot;&gt;9&lt;/font&gt;" style="ellipse;whiteSpace=wrap;html=1;aspect=fixed;" vertex="1" parent="1">
          <mxGeometry x="525.5" y="870" width="45" height="45" as="geometry" />
        </mxCell>
        <mxCell id="Z7zeJ2SPwOzKe09ysclz-19" value="&lt;font style=&quot;font-size: 14px;&quot;&gt;Печенье&lt;/font&gt;" style="ellipse;whiteSpace=wrap;html=1;aspect=fixed;" vertex="1" parent="1">
          <mxGeometry x="740" y="560" width="120" height="120" as="geometry" />
        </mxCell>
        <mxCell id="Z7zeJ2SPwOzKe09ysclz-20" value="&lt;font size=&quot;3&quot;&gt;10&lt;/font&gt;" style="ellipse;whiteSpace=wrap;html=1;aspect=fixed;" vertex="1" parent="1">
          <mxGeometry x="777.5" y="560" width="45" height="45" as="geometry" />
        </mxCell>
      </root>
    </mxGraphModel>
  </diagram>
  <diagram id="9ZZArkr_2lFc8EZIl_3G" name="Подготавливает">
    <mxGraphModel dx="1387" dy="1189" grid="1" gridSize="10" guides="1" tooltips="1" connect="1" arrows="1" fold="1" page="1" pageScale="1" pageWidth="1169" pageHeight="827" math="0" shadow="0">
      <root>
        <mxCell id="0" />
        <mxCell id="1" parent="0" />
        <mxCell id="BQz0wJOPJlxpMzo0hgCS-1" value="&lt;div&gt;&lt;span style=&quot;font-size: 14px; background-color: transparent; color: light-dark(rgb(0, 0, 0), rgb(255, 255, 255));&quot;&gt;Спагетти&lt;/span&gt;&lt;/div&gt;" style="ellipse;shape=cloud;whiteSpace=wrap;html=1;" vertex="1" parent="1">
          <mxGeometry x="50" y="135" width="150" height="100" as="geometry" />
        </mxCell>
        <mxCell id="BQz0wJOPJlxpMzo0hgCS-2" value="&lt;font style=&quot;font-size: 14px;&quot;&gt;1&lt;/font&gt;" style="ellipse;shape=cloud;whiteSpace=wrap;html=1;" vertex="1" parent="1">
          <mxGeometry x="90" y="135" width="60" height="40" as="geometry" />
        </mxCell>
        <mxCell id="BQz0wJOPJlxpMzo0hgCS-3" value="&lt;font style=&quot;font-size: 14px;&quot;&gt;Яйца&lt;/font&gt;" style="ellipse;shape=cloud;whiteSpace=wrap;html=1;" vertex="1" parent="1">
          <mxGeometry x="390" y="190" width="150" height="100" as="geometry" />
        </mxCell>
        <mxCell id="BQz0wJOPJlxpMzo0hgCS-4" value="&lt;font style=&quot;font-size: 14px;&quot;&gt;2&lt;/font&gt;" style="ellipse;shape=cloud;whiteSpace=wrap;html=1;" vertex="1" parent="1">
          <mxGeometry x="430" y="190" width="60" height="40" as="geometry" />
        </mxCell>
        <mxCell id="BQz0wJOPJlxpMzo0hgCS-5" value="&lt;font style=&quot;font-size: 14px;&quot;&gt;Бекон&lt;/font&gt;" style="ellipse;shape=cloud;whiteSpace=wrap;html=1;" vertex="1" parent="1">
          <mxGeometry x="441.25" y="445" width="150" height="100" as="geometry" />
        </mxCell>
        <mxCell id="BQz0wJOPJlxpMzo0hgCS-6" value="&lt;font style=&quot;font-size: 14px;&quot;&gt;3&lt;/font&gt;" style="ellipse;shape=cloud;whiteSpace=wrap;html=1;" vertex="1" parent="1">
          <mxGeometry x="481.25" y="445" width="60" height="40" as="geometry" />
        </mxCell>
        <mxCell id="yCeeeVa2IQHGAEHKnTJ6-1" style="edgeStyle=orthogonalEdgeStyle;rounded=0;orthogonalLoop=1;jettySize=auto;html=1;exitX=0.625;exitY=0.2;exitDx=0;exitDy=0;exitPerimeter=0;entryX=0;entryY=0.5;entryDx=0;entryDy=0;" edge="1" parent="1" source="BQz0wJOPJlxpMzo0hgCS-7" target="e7KyhIIc_R7lF2scxweE-17">
          <mxGeometry relative="1" as="geometry" />
        </mxCell>
        <mxCell id="BQz0wJOPJlxpMzo0hgCS-7" value="&lt;font style=&quot;font-size: 14px;&quot;&gt;Салат&lt;/font&gt;" style="ellipse;shape=cloud;whiteSpace=wrap;html=1;" vertex="1" parent="1">
          <mxGeometry x="661.25" y="180" width="150" height="100" as="geometry" />
        </mxCell>
        <mxCell id="BQz0wJOPJlxpMzo0hgCS-8" value="&lt;font style=&quot;font-size: 14px;&quot;&gt;4&lt;/font&gt;" style="ellipse;shape=cloud;whiteSpace=wrap;html=1;" vertex="1" parent="1">
          <mxGeometry x="701.25" y="180" width="60" height="40" as="geometry" />
        </mxCell>
        <mxCell id="BQz0wJOPJlxpMzo0hgCS-9" value="&lt;font style=&quot;font-size: 14px;&quot;&gt;Куриное филе&lt;/font&gt;" style="ellipse;shape=cloud;whiteSpace=wrap;html=1;" vertex="1" parent="1">
          <mxGeometry x="241.25" y="495" width="150" height="100" as="geometry" />
        </mxCell>
        <mxCell id="BQz0wJOPJlxpMzo0hgCS-10" value="&lt;font style=&quot;font-size: 14px;&quot;&gt;5&lt;/font&gt;" style="ellipse;shape=cloud;whiteSpace=wrap;html=1;" vertex="1" parent="1">
          <mxGeometry x="281.25" y="495" width="60" height="40" as="geometry" />
        </mxCell>
        <mxCell id="BQz0wJOPJlxpMzo0hgCS-11" value="&lt;font style=&quot;font-size: 14px;&quot;&gt;Шоколад&lt;/font&gt;" style="ellipse;shape=cloud;whiteSpace=wrap;html=1;" vertex="1" parent="1">
          <mxGeometry x="600" y="545" width="150" height="100" as="geometry" />
        </mxCell>
        <mxCell id="BQz0wJOPJlxpMzo0hgCS-12" value="&lt;font style=&quot;font-size: 14px;&quot;&gt;7&lt;/font&gt;" style="ellipse;shape=cloud;whiteSpace=wrap;html=1;" vertex="1" parent="1">
          <mxGeometry x="640" y="545" width="60" height="40" as="geometry" />
        </mxCell>
        <mxCell id="yCeeeVa2IQHGAEHKnTJ6-2" style="edgeStyle=orthogonalEdgeStyle;rounded=0;orthogonalLoop=1;jettySize=auto;html=1;exitX=0.25;exitY=0.25;exitDx=0;exitDy=0;exitPerimeter=0;entryX=1;entryY=0.75;entryDx=0;entryDy=0;" edge="1" parent="1" source="BQz0wJOPJlxpMzo0hgCS-13" target="e7KyhIIc_R7lF2scxweE-17">
          <mxGeometry relative="1" as="geometry" />
        </mxCell>
        <mxCell id="BQz0wJOPJlxpMzo0hgCS-13" value="&lt;font style=&quot;font-size: 14px;&quot;&gt;Мука&lt;/font&gt;" style="ellipse;shape=cloud;whiteSpace=wrap;html=1;" vertex="1" parent="1">
          <mxGeometry x="866.25" y="190" width="150" height="100" as="geometry" />
        </mxCell>
        <mxCell id="BQz0wJOPJlxpMzo0hgCS-14" value="&lt;font style=&quot;font-size: 14px;&quot;&gt;8&lt;/font&gt;" style="ellipse;shape=cloud;whiteSpace=wrap;html=1;" vertex="1" parent="1">
          <mxGeometry x="906.25" y="190" width="60" height="40" as="geometry" />
        </mxCell>
        <mxCell id="BQz0wJOPJlxpMzo0hgCS-15" value="&lt;font style=&quot;font-size: 14px;&quot;&gt;Грибы&lt;/font&gt;" style="ellipse;shape=cloud;whiteSpace=wrap;html=1;" vertex="1" parent="1">
          <mxGeometry x="136.25" y="355" width="150" height="100" as="geometry" />
        </mxCell>
        <mxCell id="BQz0wJOPJlxpMzo0hgCS-16" value="&lt;font style=&quot;font-size: 14px;&quot;&gt;9&lt;/font&gt;" style="ellipse;shape=cloud;whiteSpace=wrap;html=1;" vertex="1" parent="1">
          <mxGeometry x="176.25" y="355" width="60" height="40" as="geometry" />
        </mxCell>
        <mxCell id="BQz0wJOPJlxpMzo0hgCS-17" value="&lt;font style=&quot;font-size: 14px;&quot;&gt;Лук&lt;/font&gt;" style="ellipse;shape=cloud;whiteSpace=wrap;html=1;" vertex="1" parent="1">
          <mxGeometry x="481.25" y="330" width="150" height="100" as="geometry" />
        </mxCell>
        <mxCell id="BQz0wJOPJlxpMzo0hgCS-18" value="&lt;font style=&quot;font-size: 14px;&quot;&gt;10&lt;/font&gt;" style="ellipse;shape=cloud;whiteSpace=wrap;html=1;" vertex="1" parent="1">
          <mxGeometry x="521.25" y="330" width="60" height="40" as="geometry" />
        </mxCell>
        <mxCell id="yCeeeVa2IQHGAEHKnTJ6-8" style="edgeStyle=orthogonalEdgeStyle;rounded=0;orthogonalLoop=1;jettySize=auto;html=1;exitX=0.16;exitY=0.55;exitDx=0;exitDy=0;exitPerimeter=0;entryX=1;entryY=0.25;entryDx=0;entryDy=0;" edge="1" parent="1" source="BQz0wJOPJlxpMzo0hgCS-19" target="e7KyhIIc_R7lF2scxweE-17">
          <mxGeometry relative="1" as="geometry">
            <mxPoint x="950.25" y="120.00000000000023" as="sourcePoint" />
          </mxGeometry>
        </mxCell>
        <mxCell id="BQz0wJOPJlxpMzo0hgCS-19" value="&lt;font style=&quot;font-size: 14px;&quot;&gt;Соус терияки&lt;/font&gt;" style="ellipse;shape=cloud;whiteSpace=wrap;html=1;" vertex="1" parent="1">
          <mxGeometry x="981.25" y="65" width="150" height="100" as="geometry" />
        </mxCell>
        <mxCell id="BQz0wJOPJlxpMzo0hgCS-20" value="&lt;font style=&quot;font-size: 14px;&quot;&gt;6&lt;/font&gt;" style="ellipse;shape=cloud;whiteSpace=wrap;html=1;" vertex="1" parent="1">
          <mxGeometry x="1021.25" y="65" width="60" height="40" as="geometry" />
        </mxCell>
        <mxCell id="e7KyhIIc_R7lF2scxweE-1" value="Варка" style="whiteSpace=wrap;html=1;aspect=fixed;" vertex="1" parent="1">
          <mxGeometry x="270" y="120" width="80" height="80" as="geometry" />
        </mxCell>
        <mxCell id="e7KyhIIc_R7lF2scxweE-2" value="1" style="whiteSpace=wrap;html=1;aspect=fixed;" vertex="1" parent="1">
          <mxGeometry x="295" y="120" width="30" height="30" as="geometry" />
        </mxCell>
        <mxCell id="e7KyhIIc_R7lF2scxweE-3" value="Жарка" style="whiteSpace=wrap;html=1;aspect=fixed;" vertex="1" parent="1">
          <mxGeometry x="331.25" y="350" width="80" height="80" as="geometry" />
        </mxCell>
        <mxCell id="e7KyhIIc_R7lF2scxweE-4" value="2" style="whiteSpace=wrap;html=1;aspect=fixed;" vertex="1" parent="1">
          <mxGeometry x="356.25" y="350" width="30" height="30" as="geometry" />
        </mxCell>
        <mxCell id="e7KyhIIc_R7lF2scxweE-5" value="Запекание" style="whiteSpace=wrap;html=1;aspect=fixed;" vertex="1" parent="1">
          <mxGeometry x="421.25" y="565" width="80" height="80" as="geometry" />
        </mxCell>
        <mxCell id="e7KyhIIc_R7lF2scxweE-6" value="3" style="whiteSpace=wrap;html=1;aspect=fixed;" vertex="1" parent="1">
          <mxGeometry x="446.25" y="565" width="30" height="30" as="geometry" />
        </mxCell>
        <mxCell id="e7KyhIIc_R7lF2scxweE-7" value="Тушение" style="whiteSpace=wrap;html=1;aspect=fixed;fontStyle=4" vertex="1" parent="1">
          <mxGeometry x="670" y="342.5" width="80" height="80" as="geometry" />
        </mxCell>
        <mxCell id="e7KyhIIc_R7lF2scxweE-8" value="4" style="whiteSpace=wrap;html=1;aspect=fixed;fontStyle=4" vertex="1" parent="1">
          <mxGeometry x="695" y="342.5" width="30" height="30" as="geometry" />
        </mxCell>
        <mxCell id="e7KyhIIc_R7lF2scxweE-9" value="Запаривание" style="whiteSpace=wrap;html=1;aspect=fixed;" vertex="1" parent="1">
          <mxGeometry x="121.25" y="535" width="80" height="80" as="geometry" />
        </mxCell>
        <mxCell id="e7KyhIIc_R7lF2scxweE-10" value="5" style="whiteSpace=wrap;html=1;aspect=fixed;" vertex="1" parent="1">
          <mxGeometry x="146.25" y="535" width="30" height="30" as="geometry" />
        </mxCell>
        <mxCell id="e7KyhIIc_R7lF2scxweE-11" value="&lt;font style=&quot;font-size: 10px;&quot;&gt;Приготовление на пару&lt;/font&gt;" style="whiteSpace=wrap;html=1;aspect=fixed;" vertex="1" parent="1">
          <mxGeometry x="591.25" y="120" width="80" height="80" as="geometry" />
        </mxCell>
        <mxCell id="e7KyhIIc_R7lF2scxweE-12" value="6" style="whiteSpace=wrap;html=1;aspect=fixed;" vertex="1" parent="1">
          <mxGeometry x="620" y="120" width="22.5" height="22.5" as="geometry" />
        </mxCell>
        <mxCell id="e7KyhIIc_R7lF2scxweE-13" value="Гриль" style="whiteSpace=wrap;html=1;aspect=fixed;" vertex="1" parent="1">
          <mxGeometry x="811.25" y="300" width="80" height="80" as="geometry" />
        </mxCell>
        <mxCell id="e7KyhIIc_R7lF2scxweE-14" value="7" style="whiteSpace=wrap;html=1;aspect=fixed;" vertex="1" parent="1">
          <mxGeometry x="838.75" y="300" width="25" height="25" as="geometry" />
        </mxCell>
        <mxCell id="e7KyhIIc_R7lF2scxweE-15" value="&lt;font style=&quot;font-size: 10px;&quot;&gt;Запекание в микроволновке&lt;/font&gt;" style="whiteSpace=wrap;html=1;aspect=fixed;" vertex="1" parent="1">
          <mxGeometry x="171.25" y="245" width="80" height="80" as="geometry" />
        </mxCell>
        <mxCell id="e7KyhIIc_R7lF2scxweE-16" value="8" style="whiteSpace=wrap;html=1;aspect=fixed;" vertex="1" parent="1">
          <mxGeometry x="198.75" y="245" width="25" height="25" as="geometry" />
        </mxCell>
        <mxCell id="e7KyhIIc_R7lF2scxweE-17" value="Смешивание" style="whiteSpace=wrap;html=1;aspect=fixed;" vertex="1" parent="1">
          <mxGeometry x="791.25" y="55" width="75" height="75" as="geometry" />
        </mxCell>
        <mxCell id="e7KyhIIc_R7lF2scxweE-18" value="9" style="whiteSpace=wrap;html=1;aspect=fixed;" vertex="1" parent="1">
          <mxGeometry x="813.75" y="55" width="30" height="30" as="geometry" />
        </mxCell>
        <mxCell id="e7KyhIIc_R7lF2scxweE-19" value="Копчение" style="whiteSpace=wrap;html=1;aspect=fixed;" vertex="1" parent="1">
          <mxGeometry x="276.25" y="625" width="80" height="80" as="geometry" />
        </mxCell>
        <mxCell id="e7KyhIIc_R7lF2scxweE-20" value="10" style="whiteSpace=wrap;html=1;aspect=fixed;" vertex="1" parent="1">
          <mxGeometry x="301.25" y="625" width="30" height="30" as="geometry" />
        </mxCell>
        <mxCell id="vn7yZB1xmgx3DpLAeEvw-1" style="edgeStyle=orthogonalEdgeStyle;rounded=0;orthogonalLoop=1;jettySize=auto;html=1;exitX=0;exitY=0.5;exitDx=0;exitDy=0;entryX=0.746;entryY=0.232;entryDx=0;entryDy=0;entryPerimeter=0;" edge="1" parent="1" source="e7KyhIIc_R7lF2scxweE-1" target="BQz0wJOPJlxpMzo0hgCS-1">
          <mxGeometry relative="1" as="geometry">
            <Array as="points">
              <mxPoint x="262" y="160" />
            </Array>
          </mxGeometry>
        </mxCell>
        <mxCell id="vn7yZB1xmgx3DpLAeEvw-3" style="edgeStyle=orthogonalEdgeStyle;rounded=0;orthogonalLoop=1;jettySize=auto;html=1;exitX=1;exitY=0.5;exitDx=0;exitDy=0;entryX=0.07;entryY=0.4;entryDx=0;entryDy=0;entryPerimeter=0;" edge="1" parent="1" source="e7KyhIIc_R7lF2scxweE-1" target="BQz0wJOPJlxpMzo0hgCS-3">
          <mxGeometry relative="1" as="geometry">
            <Array as="points">
              <mxPoint x="370" y="160" />
              <mxPoint x="370" y="230" />
            </Array>
          </mxGeometry>
        </mxCell>
        <mxCell id="yCeeeVa2IQHGAEHKnTJ6-3" style="edgeStyle=orthogonalEdgeStyle;rounded=0;orthogonalLoop=1;jettySize=auto;html=1;exitX=1;exitY=0;exitDx=0;exitDy=0;entryX=0.13;entryY=0.77;entryDx=0;entryDy=0;entryPerimeter=0;" edge="1" parent="1" source="e7KyhIIc_R7lF2scxweE-3" target="BQz0wJOPJlxpMzo0hgCS-3">
          <mxGeometry relative="1" as="geometry" />
        </mxCell>
        <mxCell id="yCeeeVa2IQHGAEHKnTJ6-4" style="edgeStyle=orthogonalEdgeStyle;rounded=0;orthogonalLoop=1;jettySize=auto;html=1;exitX=0.5;exitY=0;exitDx=0;exitDy=0;entryX=0.55;entryY=0.95;entryDx=0;entryDy=0;entryPerimeter=0;" edge="1" parent="1" source="e7KyhIIc_R7lF2scxweE-19" target="BQz0wJOPJlxpMzo0hgCS-9">
          <mxGeometry relative="1" as="geometry" />
        </mxCell>
        <mxCell id="yCeeeVa2IQHGAEHKnTJ6-5" style="edgeStyle=orthogonalEdgeStyle;rounded=0;orthogonalLoop=1;jettySize=auto;html=1;exitX=0;exitY=1;exitDx=0;exitDy=0;entryX=0.625;entryY=0.2;entryDx=0;entryDy=0;entryPerimeter=0;" edge="1" parent="1" source="e7KyhIIc_R7lF2scxweE-3" target="BQz0wJOPJlxpMzo0hgCS-9">
          <mxGeometry relative="1" as="geometry" />
        </mxCell>
        <mxCell id="yCeeeVa2IQHGAEHKnTJ6-7" style="edgeStyle=orthogonalEdgeStyle;rounded=0;orthogonalLoop=1;jettySize=auto;html=1;exitX=0;exitY=0.5;exitDx=0;exitDy=0;entryX=0.875;entryY=0.5;entryDx=0;entryDy=0;entryPerimeter=0;" edge="1" parent="1" source="e7KyhIIc_R7lF2scxweE-3" target="BQz0wJOPJlxpMzo0hgCS-15">
          <mxGeometry relative="1" as="geometry" />
        </mxCell>
        <mxCell id="yCeeeVa2IQHGAEHKnTJ6-10" style="edgeStyle=orthogonalEdgeStyle;rounded=0;orthogonalLoop=1;jettySize=auto;html=1;exitX=1;exitY=1;exitDx=0;exitDy=0;entryX=0.07;entryY=0.4;entryDx=0;entryDy=0;entryPerimeter=0;" edge="1" parent="1" source="e7KyhIIc_R7lF2scxweE-3" target="BQz0wJOPJlxpMzo0hgCS-5">
          <mxGeometry relative="1" as="geometry">
            <Array as="points">
              <mxPoint x="411.25" y="450" />
              <mxPoint x="452.25" y="450" />
            </Array>
          </mxGeometry>
        </mxCell>
        <mxCell id="yCeeeVa2IQHGAEHKnTJ6-11" style="edgeStyle=orthogonalEdgeStyle;rounded=0;orthogonalLoop=1;jettySize=auto;html=1;exitX=1;exitY=0.5;exitDx=0;exitDy=0;entryX=0.07;entryY=0.4;entryDx=0;entryDy=0;entryPerimeter=0;" edge="1" parent="1" source="e7KyhIIc_R7lF2scxweE-3" target="BQz0wJOPJlxpMzo0hgCS-17">
          <mxGeometry relative="1" as="geometry" />
        </mxCell>
        <mxCell id="yCeeeVa2IQHGAEHKnTJ6-12" style="edgeStyle=orthogonalEdgeStyle;rounded=0;orthogonalLoop=1;jettySize=auto;html=1;exitX=0;exitY=0.5;exitDx=0;exitDy=0;entryX=0.8;entryY=0.8;entryDx=0;entryDy=0;entryPerimeter=0;" edge="1" parent="1" source="e7KyhIIc_R7lF2scxweE-5" target="BQz0wJOPJlxpMzo0hgCS-9">
          <mxGeometry relative="1" as="geometry" />
        </mxCell>
        <mxCell id="yCeeeVa2IQHGAEHKnTJ6-15" style="edgeStyle=orthogonalEdgeStyle;rounded=0;orthogonalLoop=1;jettySize=auto;html=1;exitX=0.5;exitY=1;exitDx=0;exitDy=0;entryX=0.07;entryY=0.4;entryDx=0;entryDy=0;entryPerimeter=0;" edge="1" parent="1" source="e7KyhIIc_R7lF2scxweE-11" target="BQz0wJOPJlxpMzo0hgCS-7">
          <mxGeometry relative="1" as="geometry" />
        </mxCell>
        <mxCell id="yCeeeVa2IQHGAEHKnTJ6-16" style="edgeStyle=orthogonalEdgeStyle;rounded=0;orthogonalLoop=1;jettySize=auto;html=1;exitX=0;exitY=0.5;exitDx=0;exitDy=0;entryX=0.8;entryY=0.8;entryDx=0;entryDy=0;entryPerimeter=0;" edge="1" parent="1" source="e7KyhIIc_R7lF2scxweE-7" target="BQz0wJOPJlxpMzo0hgCS-17">
          <mxGeometry relative="1" as="geometry" />
        </mxCell>
        <mxCell id="yCeeeVa2IQHGAEHKnTJ6-17" style="edgeStyle=orthogonalEdgeStyle;rounded=0;orthogonalLoop=1;jettySize=auto;html=1;exitX=0.5;exitY=0;exitDx=0;exitDy=0;entryX=0.31;entryY=0.8;entryDx=0;entryDy=0;entryPerimeter=0;" edge="1" parent="1" source="e7KyhIIc_R7lF2scxweE-7" target="BQz0wJOPJlxpMzo0hgCS-7">
          <mxGeometry relative="1" as="geometry" />
        </mxCell>
        <mxCell id="yCeeeVa2IQHGAEHKnTJ6-19" style="edgeStyle=orthogonalEdgeStyle;rounded=0;orthogonalLoop=1;jettySize=auto;html=1;exitX=1;exitY=0.5;exitDx=0;exitDy=0;entryX=0.16;entryY=0.55;entryDx=0;entryDy=0;entryPerimeter=0;" edge="1" parent="1" source="e7KyhIIc_R7lF2scxweE-9" target="BQz0wJOPJlxpMzo0hgCS-9">
          <mxGeometry relative="1" as="geometry" />
        </mxCell>
        <mxCell id="yCeeeVa2IQHGAEHKnTJ6-20" style="edgeStyle=orthogonalEdgeStyle;rounded=0;orthogonalLoop=1;jettySize=auto;html=1;exitX=0.75;exitY=1;exitDx=0;exitDy=0;entryX=0.625;entryY=0.2;entryDx=0;entryDy=0;entryPerimeter=0;" edge="1" parent="1" source="e7KyhIIc_R7lF2scxweE-15" target="BQz0wJOPJlxpMzo0hgCS-15">
          <mxGeometry relative="1" as="geometry" />
        </mxCell>
        <mxCell id="yCeeeVa2IQHGAEHKnTJ6-21" style="edgeStyle=orthogonalEdgeStyle;rounded=0;orthogonalLoop=1;jettySize=auto;html=1;exitX=0;exitY=0;exitDx=0;exitDy=0;entryX=0.96;entryY=0.7;entryDx=0;entryDy=0;entryPerimeter=0;" edge="1" parent="1" source="e7KyhIIc_R7lF2scxweE-13" target="BQz0wJOPJlxpMzo0hgCS-7">
          <mxGeometry relative="1" as="geometry" />
        </mxCell>
        <mxCell id="yCeeeVa2IQHGAEHKnTJ6-22" style="edgeStyle=orthogonalEdgeStyle;rounded=0;orthogonalLoop=1;jettySize=auto;html=1;exitX=1;exitY=0.5;exitDx=0;exitDy=0;entryX=0.16;entryY=0.55;entryDx=0;entryDy=0;entryPerimeter=0;" edge="1" parent="1" source="e7KyhIIc_R7lF2scxweE-5" target="BQz0wJOPJlxpMzo0hgCS-11">
          <mxGeometry relative="1" as="geometry" />
        </mxCell>
      </root>
    </mxGraphModel>
  </diagram>
  <diagram id="vq55m-sYoaah9QlZTddd" name="ГотовитьС">
    <mxGraphModel dx="891" dy="764" grid="1" gridSize="10" guides="1" tooltips="1" connect="1" arrows="1" fold="1" page="1" pageScale="1" pageWidth="1169" pageHeight="827" math="0" shadow="0">
      <root>
        <mxCell id="0" />
        <mxCell id="1" parent="0" />
        <mxCell id="9XNZJLmBNBu9hzJUbZeO-4" style="edgeStyle=orthogonalEdgeStyle;rounded=0;orthogonalLoop=1;jettySize=auto;html=1;exitX=1;exitY=0.5;exitDx=0;exitDy=0;entryX=0;entryY=0.5;entryDx=0;entryDy=0;" edge="1" parent="1" source="pRWNT3BOIhX2njd8iDMs-1" target="rCzWXDkskmj1IfLV0rSi-17">
          <mxGeometry relative="1" as="geometry" />
        </mxCell>
        <mxCell id="pRWNT3BOIhX2njd8iDMs-1" value="Варка" style="whiteSpace=wrap;html=1;aspect=fixed;" vertex="1" parent="1">
          <mxGeometry x="825" y="532.5" width="80" height="80" as="geometry" />
        </mxCell>
        <mxCell id="pRWNT3BOIhX2njd8iDMs-2" value="1" style="whiteSpace=wrap;html=1;aspect=fixed;" vertex="1" parent="1">
          <mxGeometry x="850" y="532.5" width="30" height="30" as="geometry" />
        </mxCell>
        <mxCell id="aLVEPSd0NyZ_i9eWY4CO-1" style="edgeStyle=orthogonalEdgeStyle;rounded=0;orthogonalLoop=1;jettySize=auto;html=1;exitX=0;exitY=0.5;exitDx=0;exitDy=0;entryX=0.5;entryY=1;entryDx=0;entryDy=0;" edge="1" parent="1" source="pRWNT3BOIhX2njd8iDMs-3" target="rCzWXDkskmj1IfLV0rSi-1">
          <mxGeometry relative="1" as="geometry" />
        </mxCell>
        <mxCell id="aLVEPSd0NyZ_i9eWY4CO-2" style="edgeStyle=orthogonalEdgeStyle;rounded=0;orthogonalLoop=1;jettySize=auto;html=1;exitX=0.75;exitY=0;exitDx=0;exitDy=0;entryX=0;entryY=0.5;entryDx=0;entryDy=0;" edge="1" parent="1" source="pRWNT3BOIhX2njd8iDMs-3" target="rCzWXDkskmj1IfLV0rSi-7">
          <mxGeometry relative="1" as="geometry" />
        </mxCell>
        <mxCell id="aLVEPSd0NyZ_i9eWY4CO-5" style="edgeStyle=orthogonalEdgeStyle;rounded=0;orthogonalLoop=1;jettySize=auto;html=1;exitX=0.5;exitY=1;exitDx=0;exitDy=0;entryX=0;entryY=0.5;entryDx=0;entryDy=0;" edge="1" parent="1" source="pRWNT3BOIhX2njd8iDMs-3" target="rCzWXDkskmj1IfLV0rSi-15">
          <mxGeometry relative="1" as="geometry" />
        </mxCell>
        <mxCell id="pRWNT3BOIhX2njd8iDMs-3" value="Жарка" style="whiteSpace=wrap;html=1;aspect=fixed;" vertex="1" parent="1">
          <mxGeometry x="290" y="270" width="80" height="80" as="geometry" />
        </mxCell>
        <mxCell id="pRWNT3BOIhX2njd8iDMs-4" value="2" style="whiteSpace=wrap;html=1;aspect=fixed;" vertex="1" parent="1">
          <mxGeometry x="315" y="270" width="30" height="30" as="geometry" />
        </mxCell>
        <mxCell id="9XNZJLmBNBu9hzJUbZeO-6" style="edgeStyle=orthogonalEdgeStyle;rounded=0;orthogonalLoop=1;jettySize=auto;html=1;exitX=0;exitY=0.75;exitDx=0;exitDy=0;entryX=1;entryY=0;entryDx=0;entryDy=0;" edge="1" parent="1" source="pRWNT3BOIhX2njd8iDMs-5" target="rCzWXDkskmj1IfLV0rSi-19">
          <mxGeometry relative="1" as="geometry" />
        </mxCell>
        <mxCell id="9XNZJLmBNBu9hzJUbZeO-9" style="edgeStyle=orthogonalEdgeStyle;rounded=0;orthogonalLoop=1;jettySize=auto;html=1;exitX=0.75;exitY=1;exitDx=0;exitDy=0;entryX=0;entryY=0;entryDx=0;entryDy=0;" edge="1" parent="1" source="pRWNT3BOIhX2njd8iDMs-5" target="rCzWXDkskmj1IfLV0rSi-5">
          <mxGeometry relative="1" as="geometry" />
        </mxCell>
        <mxCell id="pRWNT3BOIhX2njd8iDMs-5" value="Запекание" style="whiteSpace=wrap;html=1;aspect=fixed;" vertex="1" parent="1">
          <mxGeometry x="650" y="482.5" width="80" height="80" as="geometry" />
        </mxCell>
        <mxCell id="pRWNT3BOIhX2njd8iDMs-6" value="3" style="whiteSpace=wrap;html=1;aspect=fixed;" vertex="1" parent="1">
          <mxGeometry x="675" y="482.5" width="30" height="30" as="geometry" />
        </mxCell>
        <mxCell id="aLVEPSd0NyZ_i9eWY4CO-7" style="edgeStyle=orthogonalEdgeStyle;rounded=0;orthogonalLoop=1;jettySize=auto;html=1;exitX=0.5;exitY=0;exitDx=0;exitDy=0;entryX=0.5;entryY=1;entryDx=0;entryDy=0;" edge="1" parent="1" source="pRWNT3BOIhX2njd8iDMs-7" target="rCzWXDkskmj1IfLV0rSi-13">
          <mxGeometry relative="1" as="geometry" />
        </mxCell>
        <mxCell id="aLVEPSd0NyZ_i9eWY4CO-8" style="edgeStyle=orthogonalEdgeStyle;rounded=0;orthogonalLoop=1;jettySize=auto;html=1;exitX=1;exitY=0;exitDx=0;exitDy=0;entryX=0;entryY=0.5;entryDx=0;entryDy=0;" edge="1" parent="1" source="pRWNT3BOIhX2njd8iDMs-7" target="rCzWXDkskmj1IfLV0rSi-9">
          <mxGeometry relative="1" as="geometry" />
        </mxCell>
        <mxCell id="pRWNT3BOIhX2njd8iDMs-7" value="Тушение" style="whiteSpace=wrap;html=1;aspect=fixed;" vertex="1" parent="1">
          <mxGeometry x="617.5" y="320" width="80" height="80" as="geometry" />
        </mxCell>
        <mxCell id="pRWNT3BOIhX2njd8iDMs-8" value="4" style="whiteSpace=wrap;html=1;aspect=fixed;" vertex="1" parent="1">
          <mxGeometry x="642.5" y="320" width="30" height="30" as="geometry" />
        </mxCell>
        <mxCell id="9XNZJLmBNBu9hzJUbZeO-5" style="edgeStyle=orthogonalEdgeStyle;rounded=0;orthogonalLoop=1;jettySize=auto;html=1;exitX=1;exitY=0.5;exitDx=0;exitDy=0;entryX=0;entryY=0.5;entryDx=0;entryDy=0;" edge="1" parent="1" source="pRWNT3BOIhX2njd8iDMs-9" target="rCzWXDkskmj1IfLV0rSi-11">
          <mxGeometry relative="1" as="geometry" />
        </mxCell>
        <mxCell id="pRWNT3BOIhX2njd8iDMs-9" value="Запаривание" style="whiteSpace=wrap;html=1;aspect=fixed;" vertex="1" parent="1">
          <mxGeometry x="797.5" y="385" width="80" height="80" as="geometry" />
        </mxCell>
        <mxCell id="pRWNT3BOIhX2njd8iDMs-10" value="5" style="whiteSpace=wrap;html=1;aspect=fixed;" vertex="1" parent="1">
          <mxGeometry x="822.5" y="385" width="30" height="30" as="geometry" />
        </mxCell>
        <mxCell id="9XNZJLmBNBu9hzJUbZeO-3" style="edgeStyle=orthogonalEdgeStyle;rounded=0;orthogonalLoop=1;jettySize=auto;html=1;exitX=0;exitY=0.5;exitDx=0;exitDy=0;entryX=0.5;entryY=1;entryDx=0;entryDy=0;" edge="1" parent="1" source="pRWNT3BOIhX2njd8iDMs-11" target="rCzWXDkskmj1IfLV0rSi-15">
          <mxGeometry relative="1" as="geometry" />
        </mxCell>
        <mxCell id="pRWNT3BOIhX2njd8iDMs-11" value="&lt;font style=&quot;font-size: 10px;&quot;&gt;Приготовление на пару&lt;/font&gt;" style="whiteSpace=wrap;html=1;aspect=fixed;" vertex="1" parent="1">
          <mxGeometry x="490" y="470" width="80" height="80" as="geometry" />
        </mxCell>
        <mxCell id="pRWNT3BOIhX2njd8iDMs-12" value="6" style="whiteSpace=wrap;html=1;aspect=fixed;" vertex="1" parent="1">
          <mxGeometry x="518.75" y="470" width="22.5" height="22.5" as="geometry" />
        </mxCell>
        <mxCell id="9XNZJLmBNBu9hzJUbZeO-2" style="edgeStyle=orthogonalEdgeStyle;rounded=0;orthogonalLoop=1;jettySize=auto;html=1;exitX=0;exitY=0.5;exitDx=0;exitDy=0;entryX=1;entryY=0.5;entryDx=0;entryDy=0;" edge="1" parent="1" source="pRWNT3BOIhX2njd8iDMs-13" target="rCzWXDkskmj1IfLV0rSi-9">
          <mxGeometry relative="1" as="geometry" />
        </mxCell>
        <mxCell id="pRWNT3BOIhX2njd8iDMs-13" value="Гриль" style="whiteSpace=wrap;html=1;aspect=fixed;" vertex="1" parent="1">
          <mxGeometry x="917.5" y="240" width="80" height="80" as="geometry" />
        </mxCell>
        <mxCell id="pRWNT3BOIhX2njd8iDMs-14" value="7" style="whiteSpace=wrap;html=1;aspect=fixed;" vertex="1" parent="1">
          <mxGeometry x="945" y="240" width="25" height="25" as="geometry" />
        </mxCell>
        <mxCell id="aLVEPSd0NyZ_i9eWY4CO-6" style="edgeStyle=orthogonalEdgeStyle;rounded=0;orthogonalLoop=1;jettySize=auto;html=1;exitX=0.75;exitY=0;exitDx=0;exitDy=0;entryX=0;entryY=1;entryDx=0;entryDy=0;" edge="1" parent="1" source="pRWNT3BOIhX2njd8iDMs-15" target="rCzWXDkskmj1IfLV0rSi-15">
          <mxGeometry relative="1" as="geometry" />
        </mxCell>
        <mxCell id="pRWNT3BOIhX2njd8iDMs-15" value="&lt;font style=&quot;font-size: 10px;&quot;&gt;Запекание в микроволновке&lt;/font&gt;" style="whiteSpace=wrap;html=1;aspect=fixed;" vertex="1" parent="1">
          <mxGeometry x="315" y="440" width="80" height="80" as="geometry" />
        </mxCell>
        <mxCell id="pRWNT3BOIhX2njd8iDMs-16" value="8" style="whiteSpace=wrap;html=1;aspect=fixed;" vertex="1" parent="1">
          <mxGeometry x="342.5" y="440" width="25" height="25" as="geometry" />
        </mxCell>
        <mxCell id="aLVEPSd0NyZ_i9eWY4CO-4" style="edgeStyle=orthogonalEdgeStyle;rounded=0;orthogonalLoop=1;jettySize=auto;html=1;exitX=0.5;exitY=0;exitDx=0;exitDy=0;entryX=0.5;entryY=1;entryDx=0;entryDy=0;" edge="1" parent="1" source="pRWNT3BOIhX2njd8iDMs-17" target="rCzWXDkskmj1IfLV0rSi-3">
          <mxGeometry relative="1" as="geometry" />
        </mxCell>
        <mxCell id="pRWNT3BOIhX2njd8iDMs-17" value="Смешивание" style="whiteSpace=wrap;html=1;aspect=fixed;" vertex="1" parent="1">
          <mxGeometry x="120" y="520" width="80" height="80" as="geometry" />
        </mxCell>
        <mxCell id="pRWNT3BOIhX2njd8iDMs-18" value="9" style="whiteSpace=wrap;html=1;aspect=fixed;" vertex="1" parent="1">
          <mxGeometry x="145" y="520" width="30" height="30" as="geometry" />
        </mxCell>
        <mxCell id="9XNZJLmBNBu9hzJUbZeO-1" style="edgeStyle=orthogonalEdgeStyle;rounded=0;orthogonalLoop=1;jettySize=auto;html=1;exitX=0;exitY=0.5;exitDx=0;exitDy=0;entryX=0;entryY=0;entryDx=0;entryDy=0;" edge="1" parent="1" source="pRWNT3BOIhX2njd8iDMs-19" target="rCzWXDkskmj1IfLV0rSi-9">
          <mxGeometry relative="1" as="geometry" />
        </mxCell>
        <mxCell id="pRWNT3BOIhX2njd8iDMs-19" value="Копчение" style="whiteSpace=wrap;html=1;aspect=fixed;" vertex="1" parent="1">
          <mxGeometry x="825" y="100" width="80" height="80" as="geometry" />
        </mxCell>
        <mxCell id="pRWNT3BOIhX2njd8iDMs-20" value="10" style="whiteSpace=wrap;html=1;aspect=fixed;" vertex="1" parent="1">
          <mxGeometry x="850" y="100" width="30" height="30" as="geometry" />
        </mxCell>
        <mxCell id="rCzWXDkskmj1IfLV0rSi-1" value="&lt;font style=&quot;font-size: 14px;&quot;&gt;Паста карбонара&lt;/font&gt;" style="ellipse;whiteSpace=wrap;html=1;aspect=fixed;" vertex="1" parent="1">
          <mxGeometry x="157.5" y="160" width="120" height="120" as="geometry" />
        </mxCell>
        <mxCell id="rCzWXDkskmj1IfLV0rSi-2" value="&lt;font style=&quot;font-size: 16px;&quot;&gt;1&lt;/font&gt;" style="ellipse;whiteSpace=wrap;html=1;aspect=fixed;" vertex="1" parent="1">
          <mxGeometry x="195" y="160" width="45" height="45" as="geometry" />
        </mxCell>
        <mxCell id="rCzWXDkskmj1IfLV0rSi-3" value="&lt;font style=&quot;font-size: 14px;&quot;&gt;Цезарь салат&lt;/font&gt;" style="ellipse;whiteSpace=wrap;html=1;aspect=fixed;" vertex="1" parent="1">
          <mxGeometry x="97.5" y="370" width="120" height="120" as="geometry" />
        </mxCell>
        <mxCell id="rCzWXDkskmj1IfLV0rSi-4" value="&lt;font style=&quot;font-size: 16px;&quot;&gt;2&lt;/font&gt;" style="ellipse;whiteSpace=wrap;html=1;aspect=fixed;" vertex="1" parent="1">
          <mxGeometry x="135" y="370" width="45" height="45" as="geometry" />
        </mxCell>
        <mxCell id="rCzWXDkskmj1IfLV0rSi-5" value="&lt;font style=&quot;font-size: 13px;&quot;&gt;Шоколадный торт&lt;/font&gt;" style="ellipse;whiteSpace=wrap;html=1;aspect=fixed;" vertex="1" parent="1">
          <mxGeometry x="692.5" y="620" width="120" height="120" as="geometry" />
        </mxCell>
        <mxCell id="rCzWXDkskmj1IfLV0rSi-6" value="&lt;font style=&quot;font-size: 16px;&quot;&gt;3&lt;/font&gt;" style="ellipse;whiteSpace=wrap;html=1;aspect=fixed;" vertex="1" parent="1">
          <mxGeometry x="730" y="620" width="45" height="45" as="geometry" />
        </mxCell>
        <mxCell id="rCzWXDkskmj1IfLV0rSi-7" value="&lt;font style=&quot;font-size: 14px;&quot;&gt;Омлет&lt;/font&gt;" style="ellipse;whiteSpace=wrap;html=1;aspect=fixed;" vertex="1" parent="1">
          <mxGeometry x="400" y="160" width="120" height="120" as="geometry" />
        </mxCell>
        <mxCell id="rCzWXDkskmj1IfLV0rSi-8" value="&lt;font size=&quot;3&quot;&gt;4&lt;/font&gt;" style="ellipse;whiteSpace=wrap;html=1;aspect=fixed;" vertex="1" parent="1">
          <mxGeometry x="437.5" y="160" width="45" height="45" as="geometry" />
        </mxCell>
        <mxCell id="rCzWXDkskmj1IfLV0rSi-9" value="&lt;font style=&quot;font-size: 14px;&quot;&gt;Курица терияки&lt;/font&gt;" style="ellipse;whiteSpace=wrap;html=1;aspect=fixed;" vertex="1" parent="1">
          <mxGeometry x="730" y="220" width="120" height="120" as="geometry" />
        </mxCell>
        <mxCell id="rCzWXDkskmj1IfLV0rSi-10" value="&lt;font style=&quot;font-size: 16px;&quot;&gt;5&lt;/font&gt;" style="ellipse;whiteSpace=wrap;html=1;aspect=fixed;" vertex="1" parent="1">
          <mxGeometry x="767.5" y="220" width="45" height="45" as="geometry" />
        </mxCell>
        <mxCell id="rCzWXDkskmj1IfLV0rSi-11" value="&lt;font style=&quot;font-size: 14px;&quot;&gt;Тайский карри&lt;/font&gt;" style="ellipse;whiteSpace=wrap;html=1;aspect=fixed;" vertex="1" parent="1">
          <mxGeometry x="960" y="365" width="120" height="120" as="geometry" />
        </mxCell>
        <mxCell id="rCzWXDkskmj1IfLV0rSi-12" value="&lt;font size=&quot;3&quot;&gt;6&lt;/font&gt;" style="ellipse;whiteSpace=wrap;html=1;aspect=fixed;" vertex="1" parent="1">
          <mxGeometry x="997.5" y="365" width="45" height="45" as="geometry" />
        </mxCell>
        <mxCell id="rCzWXDkskmj1IfLV0rSi-13" value="&lt;font style=&quot;font-size: 14px;&quot;&gt;Ризотто&lt;/font&gt;" style="ellipse;whiteSpace=wrap;html=1;aspect=fixed;" vertex="1" parent="1">
          <mxGeometry x="597.5" y="122.5" width="120" height="120" as="geometry" />
        </mxCell>
        <mxCell id="rCzWXDkskmj1IfLV0rSi-14" value="&lt;font size=&quot;3&quot;&gt;7&lt;/font&gt;" style="ellipse;whiteSpace=wrap;html=1;aspect=fixed;" vertex="1" parent="1">
          <mxGeometry x="635" y="122.5" width="45" height="45" as="geometry" />
        </mxCell>
        <mxCell id="rCzWXDkskmj1IfLV0rSi-15" value="&lt;font style=&quot;font-size: 14px;&quot;&gt;Бургер&lt;/font&gt;" style="ellipse;whiteSpace=wrap;html=1;aspect=fixed;" vertex="1" parent="1">
          <mxGeometry x="400" y="320" width="120" height="120" as="geometry" />
        </mxCell>
        <mxCell id="rCzWXDkskmj1IfLV0rSi-16" value="&lt;font size=&quot;3&quot;&gt;8&lt;/font&gt;" style="ellipse;whiteSpace=wrap;html=1;aspect=fixed;" vertex="1" parent="1">
          <mxGeometry x="437.5" y="320" width="45" height="45" as="geometry" />
        </mxCell>
        <mxCell id="rCzWXDkskmj1IfLV0rSi-17" value="&lt;font style=&quot;font-size: 13px;&quot;&gt;Суп минестроне&lt;/font&gt;" style="ellipse;whiteSpace=wrap;html=1;aspect=fixed;" vertex="1" parent="1">
          <mxGeometry x="962.5" y="512.5" width="120" height="120" as="geometry" />
        </mxCell>
        <mxCell id="rCzWXDkskmj1IfLV0rSi-18" value="&lt;font size=&quot;3&quot;&gt;9&lt;/font&gt;" style="ellipse;whiteSpace=wrap;html=1;aspect=fixed;" vertex="1" parent="1">
          <mxGeometry x="1000" y="512.5" width="45" height="45" as="geometry" />
        </mxCell>
        <mxCell id="rCzWXDkskmj1IfLV0rSi-19" value="&lt;font style=&quot;font-size: 14px;&quot;&gt;Печенье&lt;/font&gt;" style="ellipse;whiteSpace=wrap;html=1;aspect=fixed;" vertex="1" parent="1">
          <mxGeometry x="500" y="600" width="120" height="120" as="geometry" />
        </mxCell>
        <mxCell id="rCzWXDkskmj1IfLV0rSi-20" value="&lt;font size=&quot;3&quot;&gt;10&lt;/font&gt;" style="ellipse;whiteSpace=wrap;html=1;aspect=fixed;" vertex="1" parent="1">
          <mxGeometry x="537.5" y="600" width="45" height="45" as="geometry" />
        </mxCell>
      </root>
    </mxGraphModel>
  </diagram>
</mxfile>
